<svg width="342" height="332" viewBox="0 0 342 332" fill="none" xmlns="http://www.w3.org/2000/svg">
<path d="M68.9112 244.362C27.6812 268.19 50.8981 326.938 64.508 329.403C74.9904 331.301 109.451 330.213 126.153 329.403L255.447 231.216L179.791 220.534C156.574 220.534 101.895 225.3 68.9112 244.362Z" fill="white"/>
<path d="M126.153 329.403C125.556 329.433 126.799 329.371 126.153 329.403ZM126.153 329.403C109.451 330.213 74.9904 331.301 64.508 329.403C50.8981 326.938 27.6812 268.19 68.9112 244.362C101.895 225.3 156.574 220.534 179.791 220.534L255.447 231.216L126.153 329.403Z" stroke="black" stroke-width="1.62158"/>
<path d="M80.1183 252.427C108.619 246.84 131.756 264.021 139.762 273.31C141.099 271.39 142.545 269.493 144.106 267.627C141.645 256.535 93.7282 244.621 80.1183 252.427Z" fill="#000001"/>
<path d="M123.263 330.619C124.275 330.573 125.24 330.528 126.153 330.484L231.756 250.288C227.104 248.673 215.113 243.705 204.369 236.75C131.479 245.615 119.927 303.023 123.263 330.619Z" fill="#0E1729"/>
<path d="M243.837 330.483C296.274 313.229 255.445 235.172 255.445 232.296L235.831 229.527C135.918 235.857 121.081 299.468 126.152 330.483L143.013 473.039H186.463L190.198 330.483H243.837Z" fill="white" stroke="black" stroke-width="1.62158"/>
<path d="M179.791 300.904C186.196 307.477 189.398 323.363 190.199 330.484H196.203C194.602 322.404 189.078 305.177 179.791 300.904Z" fill="#000001"/>
<rect y="330" width="342" height="2" fill="black"/>
<path d="M187.916 81.3777C185.807 78.6236 180.325 70.1647 175.265 58.3617C176.415 56.9845 178.6 52.8139 178.14 47.1484C172.16 46.2042 168.536 32.9847 167.472 26.493C175.413 21.972 168.646 9.91153 171.24 9.37883C174.115 8.78838 181.59 11.7392 181.59 19.4112C181.59 27.0832 194.398 23.4618 197.691 21.7718C205.741 17.6407 202.866 27.6739 199.416 37.1161C197.576 40.421 204.016 46.7553 207.466 49.5093C208.386 58.9518 200.183 73.509 195.966 79.6072C196.541 97.3119 196.656 132.721 192.516 132.721C189.756 127.056 188.299 96.1315 187.916 81.3777Z" fill="white" stroke="black" stroke-width="1.08105"/>
<path d="M182.739 27.6699C181.781 28.6535 180.439 31.4469 182.739 34.7518" stroke="#241715" stroke-width="0.540525"/>
<path d="M187.339 36.5269C186.956 38.6908 185.269 41.9563 181.589 37.7072" stroke="#241715" stroke-width="0.540525"/>
<path d="M199.99 29.4421C200.756 27.2782 201.715 23.0684 199.415 23.5405" stroke="#241715" stroke-width="0.540525"/>
<path d="M177.526 53.6389C178.033 51.837 178.342 49.6365 178.139 47.1474C181.326 48.9181 186.764 49.5083 198.264 41.2456C198.724 47.3832 184.63 52.0651 177.526 53.6389Z" fill="black"/>
<path d="M206.891 9.37822C210.916 19.4109 201.715 32.9844 199.415 37.1155C202.865 27.6733 205.165 17.6401 197.69 21.7712C194.448 23.5628 181.59 27.0826 181.59 19.4106C181.59 11.7385 174.114 8.78777 171.239 9.37822C168.645 9.91092 175.412 21.9714 167.471 26.4924C166.61 26.9826 165.576 27.3841 164.339 27.6727C167.214 23.5416 166.064 24.1318 163.764 14.0992C161.464 4.06653 171.814 1.70621 181.59 0.525906C191.365 -0.654403 202.865 -0.654403 206.891 9.37822Z" fill="black"/>
<path d="M260.942 73.1155C253.582 63.2009 222.224 53.2469 207.465 49.5093C208.385 58.9517 200.181 73.5089 195.965 79.6072C196.54 97.3118 196.655 132.721 192.515 132.721C189.755 127.056 188.298 96.1315 187.914 81.3776C185.806 78.6236 180.324 70.1647 175.264 58.3616C174.114 61.9025 143.063 86.0989 137.888 93.7709C132.712 101.443 130.987 175.212 130.987 181.704C130.987 188.196 128.687 232.457 147.663 232.457C162.843 232.457 224.907 234.621 256.342 235.408C260.942 185.442 268.302 83.0301 260.942 73.1155Z" fill="black"/>
<path d="M130.989 181.7C162.423 175.012 225.293 167.655 225.293 191.733C225.293 215.811 196.158 229.419 181.591 233.213M225.293 54.7612C221.459 56.5503 213.332 64.9676 211.492 84.3247C209.192 108.521 201.809 116.783 195.827 116.783M189.958 117.963C185.06 120.718 174.346 122.803 170.665 109.111C166.065 91.9967 156.468 82.5542 145.741 85.505M242.543 61.3091C241.393 60.8095 222.993 73.7019 221.267 103.21C219.542 132.717 201.142 188.192 163.19 158.684C148.814 143.93 134.962 134.685 132.636 135.668M175.266 233.034C180.441 227.923 189.411 216.047 183.891 209.437C178.371 202.828 148.176 211.798 133.769 217.109M263.704 88.4558C251.283 96.3245 228.398 121.386 236.218 158.684C243.118 179.93 255.728 177.766 261.17 174.028M259.09 202.946C251.657 203.046 237.483 209.591 240.243 234.965" stroke="white" stroke-width="0.540525"/>
<path d="M192.515 232.452V133.306" stroke="#027269" stroke-width="0.540525"/>
<path d="M192.86 231.487L190.034 209.922C183.608 211.118 170.224 212.277 159.886 213.283C149.063 214.336 146.335 220.168 153.6 222.03C149.8 221.544 145.545 226.921 151.609 229.329C147.161 230.95 155.959 232.759 160.271 232.768C157.803 233.151 153.524 233.857 154.105 236.541C154.687 239.225 180.184 234.29 192.86 231.487Z" fill="white"/>
<path d="M192.86 231.487L190.034 209.922C188.539 210.201 186.668 210.477 184.546 210.75L178.117 234.49C183.518 233.482 188.836 232.377 192.86 231.487Z" fill="black"/>
<path d="M160.448 232.927L169.389 230.344" stroke="black" stroke-width="0.540525"/>
<path d="M153.658 227.164L169.333 225.211" stroke="black" stroke-width="0.540525"/>
<path d="M153.6 222.03L169.611 219.188" stroke="black" stroke-width="0.540525"/>
<path d="M278.002 212.549C279.394 189.948 280.913 76.0491 256.071 69.9093C227.358 62.8122 227.734 171.434 240.2 196.215L181.566 202.332L187.068 239.877C215.574 237.834 275.7 249.949 278.002 212.549Z" fill="black"/>
<path d="M256.071 69.9089C227.357 62.8118 227.734 171.434 240.199 196.214L181.566 202.331" stroke="white" stroke-width="0.540525"/>
<path d="M268.032 86.2775C259.159 87.2677 239.441 92.5249 234.604 104.848M273.552 106.107C265.556 109.697 246.836 121.78 244.475 134.184C242.114 146.589 267.123 142.4 277.233 140.1M277.846 161.818C269.442 165.845 239.983 168.518 233.377 159.301M278.152 200.534C269.546 195.173 244.768 184.473 238.284 188.573M214.976 198.645C211.296 206.829 217.06 236.921 233.377 240.193" stroke="white" stroke-width="0.540525"/>
<path d="M26.6062 155.671H125.148C126.938 155.671 128.542 156.774 129.184 158.444L158.485 234.672C159.127 236.342 160.731 237.444 162.521 237.444H239.16C240.61 237.444 241.785 238.62 241.785 240.07C241.785 241.52 240.61 242.696 239.16 242.696H56.8895C55.1027 242.696 53.4999 241.597 52.8559 239.93L22.5726 161.554C21.4779 158.721 23.5687 155.671 26.6062 155.671Z" fill="white" stroke="black" stroke-width="1.62158"/>
<path d="M128.715 157.146L161.205 237.444H159.114C157.353 237.444 155.769 236.377 155.107 234.746L124.34 158.919C123.71 157.367 124.852 155.671 126.527 155.671C127.489 155.671 128.354 156.255 128.715 157.146Z" fill="black"/>
<path d="M52.8559 239.93L22.5726 161.554C21.4779 158.721 23.5688 155.671 26.6062 155.671H34.0689C34.7269 155.671 35.3743 155.822 35.9693 156.103C38.6688 157.378 43.1642 159.38 50.6056 163.239C75.6223 176.211 78.7822 203.778 73.5156 217.291C69.2459 228.246 125.682 239.57 147.855 242.696H56.8895C55.1027 242.696 53.4999 241.597 52.8559 239.93Z" fill="black"/>
<ellipse cx="6.30238" cy="7.39094" rx="6.30238" ry="7.39094" transform="matrix(-0.933249 0.359231 0.343238 0.939249 90.2982 182.698)" fill="black"/>
</svg>
