<svg width="218" height="55" viewBox="0 0 218 55" fill="none" xmlns="http://www.w3.org/2000/svg">
<mask id="path-1-outside-1_28_628" maskUnits="userSpaceOnUse" x="0" y="0" width="218" height="55" fill="black">
<rect fill="white" width="218" height="55"/>
<path d="M3.552 41V5.96H12.192V41H3.552ZM11.232 41V33.704H26.016V41H11.232ZM11.232 26.84V19.544H25.008V26.84H11.232ZM11.232 13.256V5.96H25.728V13.256H11.232ZM30.6143 41V14.504H37.5263V25.88H37.1423C37.1423 23.128 37.4943 20.856 38.1983 19.064C38.9023 17.24 39.9423 15.88 41.3183 14.984C42.7263 14.088 44.4223 13.64 46.4063 13.64H46.7903C49.7983 13.64 52.1183 14.648 53.7503 16.664C55.4143 18.648 56.2463 21.704 56.2463 25.832V41H47.5103V25.592C47.5103 24.376 47.1423 23.384 46.4063 22.616C45.7023 21.816 44.7263 21.416 43.4783 21.416C42.2303 21.416 41.2223 21.816 40.4543 22.616C39.7183 23.384 39.3503 24.408 39.3503 25.688V41H30.6143ZM71.7623 51.608C70.4503 51.608 69.0903 51.56 67.6823 51.464C66.3063 51.368 65.0583 51.24 63.9383 51.08V43.784C65.0583 43.912 66.3063 44.024 67.6823 44.12C69.0583 44.248 70.3223 44.312 71.4743 44.312C73.4583 44.312 75.0743 44.104 76.3223 43.688C77.6023 43.272 78.5463 42.632 79.1543 41.768C79.7623 40.904 80.0663 39.8 80.0663 38.456V33.08L81.4103 30.2C81.3463 32.44 80.9143 34.392 80.1143 36.056C79.3143 37.688 78.1623 38.952 76.6583 39.848C75.1863 40.744 73.3943 41.192 71.2823 41.192C69.4903 41.192 67.8743 40.872 66.4343 40.232C64.9943 39.592 63.7623 38.696 62.7383 37.544C61.7463 36.36 60.9783 34.968 60.4343 33.368C59.8903 31.768 59.6183 30.024 59.6183 28.136V26.984C59.6183 25.096 59.9063 23.352 60.4823 21.752C61.0583 20.12 61.8903 18.712 62.9783 17.528C64.0663 16.312 65.3463 15.384 66.8183 14.744C68.3223 14.072 69.9863 13.736 71.8103 13.736C73.9223 13.736 75.7463 14.216 77.2823 15.176C78.8183 16.104 80.0183 17.464 80.8823 19.256C81.7463 21.048 82.2103 23.224 82.2743 25.784L81.3143 26.12V14.504H88.2263V37.88C88.2263 41.144 87.6183 43.784 86.4023 45.8C85.1863 47.816 83.3463 49.288 80.8823 50.216C78.4503 51.144 75.4103 51.608 71.7623 51.608ZM74.2103 33.992C75.2663 33.992 76.2103 33.752 77.0423 33.272C77.9063 32.792 78.5943 32.104 79.1063 31.208C79.6183 30.28 79.8743 29.176 79.8743 27.896V26.744C79.8743 25.496 79.6023 24.44 79.0583 23.576C78.5463 22.712 77.8583 22.056 76.9943 21.608C76.1303 21.16 75.2023 20.936 74.2103 20.936C73.0583 20.936 72.0343 21.208 71.1383 21.752C70.2743 22.296 69.5863 23.064 69.0743 24.056C68.5943 25.048 68.3543 26.216 68.3543 27.56C68.3543 28.904 68.5943 30.056 69.0743 31.016C69.5863 31.976 70.2743 32.712 71.1383 33.224C72.0343 33.736 73.0583 33.992 74.2103 33.992ZM94.5829 41V14.504H103.319V41H94.5829ZM91.2229 20.84V14.504H103.319V20.84H91.2229ZM98.1829 12.392C96.5829 12.392 95.3989 11.992 94.6309 11.192C93.8949 10.36 93.5269 9.304 93.5269 8.024C93.5269 6.744 93.8949 5.704 94.6309 4.904C95.3989 4.072 96.5669 3.656 98.1349 3.656C99.7349 3.656 100.903 4.072 101.639 4.904C102.375 5.704 102.743 6.744 102.743 8.024C102.743 9.304 102.375 10.36 101.639 11.192C100.903 11.992 99.7509 12.392 98.1829 12.392ZM108.781 41V14.504H115.693V25.88H115.309C115.309 23.128 115.661 20.856 116.365 19.064C117.069 17.24 118.109 15.88 119.485 14.984C120.893 14.088 122.589 13.64 124.573 13.64H124.957C127.965 13.64 130.285 14.648 131.917 16.664C133.581 18.648 134.413 21.704 134.413 25.832V41H125.677V25.592C125.677 24.376 125.309 23.384 124.573 22.616C123.869 21.816 122.893 21.416 121.645 21.416C120.397 21.416 119.389 21.816 118.621 22.616C117.885 23.384 117.517 24.408 117.517 25.688V41H108.781ZM151.753 41.96C149.513 41.96 147.529 41.576 145.801 40.808C144.073 40.04 142.617 39 141.433 37.688C140.249 36.376 139.337 34.904 138.697 33.272C138.089 31.64 137.785 29.96 137.785 28.232V27.272C137.785 25.48 138.089 23.768 138.697 22.136C139.337 20.472 140.233 19 141.385 17.72C142.569 16.44 144.009 15.432 145.705 14.696C147.401 13.928 149.321 13.544 151.465 13.544C154.313 13.544 156.729 14.184 158.713 15.464C160.697 16.744 162.217 18.44 163.273 20.552C164.329 22.632 164.857 24.904 164.857 27.368V30.152H141.433V25.448H159.817L156.793 27.56C156.793 26.056 156.585 24.792 156.169 23.768C155.785 22.712 155.193 21.912 154.393 21.368C153.625 20.824 152.649 20.552 151.465 20.552C150.313 20.552 149.305 20.824 148.441 21.368C147.609 21.88 146.969 22.68 146.521 23.768C146.073 24.824 145.849 26.168 145.849 27.8C145.849 29.272 146.057 30.552 146.473 31.64C146.889 32.696 147.529 33.512 148.393 34.088C149.257 34.664 150.377 34.952 151.753 34.952C152.969 34.952 153.961 34.744 154.729 34.328C155.529 33.912 156.089 33.352 156.409 32.648H164.377C163.993 34.44 163.225 36.04 162.073 37.448C160.953 38.856 159.513 39.96 157.753 40.76C156.025 41.56 154.025 41.96 151.753 41.96ZM180.934 41.96C178.694 41.96 176.71 41.576 174.982 40.808C173.254 40.04 171.798 39 170.614 37.688C169.43 36.376 168.518 34.904 167.878 33.272C167.27 31.64 166.966 29.96 166.966 28.232V27.272C166.966 25.48 167.27 23.768 167.878 22.136C168.518 20.472 169.414 19 170.566 17.72C171.75 16.44 173.19 15.432 174.886 14.696C176.582 13.928 178.502 13.544 180.646 13.544C183.494 13.544 185.91 14.184 187.894 15.464C189.878 16.744 191.398 18.44 192.454 20.552C193.51 22.632 194.038 24.904 194.038 27.368V30.152H170.614V25.448H188.998L185.974 27.56C185.974 26.056 185.766 24.792 185.35 23.768C184.966 22.712 184.374 21.912 183.574 21.368C182.806 20.824 181.83 20.552 180.646 20.552C179.494 20.552 178.486 20.824 177.622 21.368C176.79 21.88 176.15 22.68 175.702 23.768C175.254 24.824 175.03 26.168 175.03 27.8C175.03 29.272 175.238 30.552 175.654 31.64C176.07 32.696 176.71 33.512 177.574 34.088C178.438 34.664 179.558 34.952 180.934 34.952C182.15 34.952 183.142 34.744 183.91 34.328C184.71 33.912 185.27 33.352 185.59 32.648H193.558C193.174 34.44 192.406 36.04 191.254 37.448C190.134 38.856 188.694 39.96 186.934 40.76C185.206 41.56 183.206 41.96 180.934 41.96ZM197.682 41V14.504H204.594V26.024H204.498C204.498 22.312 205.266 19.4 206.802 17.288C208.37 15.176 210.61 14.12 213.522 14.12H214.578V21.608H212.562C210.61 21.608 209.09 22.136 208.002 23.192C206.946 24.248 206.418 25.768 206.418 27.752V41H197.682Z"/>
</mask>
<path d="M3.552 41V5.96H12.192V41H3.552ZM11.232 41V33.704H26.016V41H11.232ZM11.232 26.84V19.544H25.008V26.84H11.232ZM11.232 13.256V5.96H25.728V13.256H11.232ZM30.6143 41V14.504H37.5263V25.88H37.1423C37.1423 23.128 37.4943 20.856 38.1983 19.064C38.9023 17.24 39.9423 15.88 41.3183 14.984C42.7263 14.088 44.4223 13.64 46.4063 13.64H46.7903C49.7983 13.64 52.1183 14.648 53.7503 16.664C55.4143 18.648 56.2463 21.704 56.2463 25.832V41H47.5103V25.592C47.5103 24.376 47.1423 23.384 46.4063 22.616C45.7023 21.816 44.7263 21.416 43.4783 21.416C42.2303 21.416 41.2223 21.816 40.4543 22.616C39.7183 23.384 39.3503 24.408 39.3503 25.688V41H30.6143ZM71.7623 51.608C70.4503 51.608 69.0903 51.56 67.6823 51.464C66.3063 51.368 65.0583 51.24 63.9383 51.08V43.784C65.0583 43.912 66.3063 44.024 67.6823 44.12C69.0583 44.248 70.3223 44.312 71.4743 44.312C73.4583 44.312 75.0743 44.104 76.3223 43.688C77.6023 43.272 78.5463 42.632 79.1543 41.768C79.7623 40.904 80.0663 39.8 80.0663 38.456V33.08L81.4103 30.2C81.3463 32.44 80.9143 34.392 80.1143 36.056C79.3143 37.688 78.1623 38.952 76.6583 39.848C75.1863 40.744 73.3943 41.192 71.2823 41.192C69.4903 41.192 67.8743 40.872 66.4343 40.232C64.9943 39.592 63.7623 38.696 62.7383 37.544C61.7463 36.36 60.9783 34.968 60.4343 33.368C59.8903 31.768 59.6183 30.024 59.6183 28.136V26.984C59.6183 25.096 59.9063 23.352 60.4823 21.752C61.0583 20.12 61.8903 18.712 62.9783 17.528C64.0663 16.312 65.3463 15.384 66.8183 14.744C68.3223 14.072 69.9863 13.736 71.8103 13.736C73.9223 13.736 75.7463 14.216 77.2823 15.176C78.8183 16.104 80.0183 17.464 80.8823 19.256C81.7463 21.048 82.2103 23.224 82.2743 25.784L81.3143 26.12V14.504H88.2263V37.88C88.2263 41.144 87.6183 43.784 86.4023 45.8C85.1863 47.816 83.3463 49.288 80.8823 50.216C78.4503 51.144 75.4103 51.608 71.7623 51.608ZM74.2103 33.992C75.2663 33.992 76.2103 33.752 77.0423 33.272C77.9063 32.792 78.5943 32.104 79.1063 31.208C79.6183 30.28 79.8743 29.176 79.8743 27.896V26.744C79.8743 25.496 79.6023 24.44 79.0583 23.576C78.5463 22.712 77.8583 22.056 76.9943 21.608C76.1303 21.16 75.2023 20.936 74.2103 20.936C73.0583 20.936 72.0343 21.208 71.1383 21.752C70.2743 22.296 69.5863 23.064 69.0743 24.056C68.5943 25.048 68.3543 26.216 68.3543 27.56C68.3543 28.904 68.5943 30.056 69.0743 31.016C69.5863 31.976 70.2743 32.712 71.1383 33.224C72.0343 33.736 73.0583 33.992 74.2103 33.992ZM94.5829 41V14.504H103.319V41H94.5829ZM91.2229 20.84V14.504H103.319V20.84H91.2229ZM98.1829 12.392C96.5829 12.392 95.3989 11.992 94.6309 11.192C93.8949 10.36 93.5269 9.304 93.5269 8.024C93.5269 6.744 93.8949 5.704 94.6309 4.904C95.3989 4.072 96.5669 3.656 98.1349 3.656C99.7349 3.656 100.903 4.072 101.639 4.904C102.375 5.704 102.743 6.744 102.743 8.024C102.743 9.304 102.375 10.36 101.639 11.192C100.903 11.992 99.7509 12.392 98.1829 12.392ZM108.781 41V14.504H115.693V25.88H115.309C115.309 23.128 115.661 20.856 116.365 19.064C117.069 17.24 118.109 15.88 119.485 14.984C120.893 14.088 122.589 13.64 124.573 13.64H124.957C127.965 13.64 130.285 14.648 131.917 16.664C133.581 18.648 134.413 21.704 134.413 25.832V41H125.677V25.592C125.677 24.376 125.309 23.384 124.573 22.616C123.869 21.816 122.893 21.416 121.645 21.416C120.397 21.416 119.389 21.816 118.621 22.616C117.885 23.384 117.517 24.408 117.517 25.688V41H108.781ZM151.753 41.96C149.513 41.96 147.529 41.576 145.801 40.808C144.073 40.04 142.617 39 141.433 37.688C140.249 36.376 139.337 34.904 138.697 33.272C138.089 31.64 137.785 29.96 137.785 28.232V27.272C137.785 25.48 138.089 23.768 138.697 22.136C139.337 20.472 140.233 19 141.385 17.72C142.569 16.44 144.009 15.432 145.705 14.696C147.401 13.928 149.321 13.544 151.465 13.544C154.313 13.544 156.729 14.184 158.713 15.464C160.697 16.744 162.217 18.44 163.273 20.552C164.329 22.632 164.857 24.904 164.857 27.368V30.152H141.433V25.448H159.817L156.793 27.56C156.793 26.056 156.585 24.792 156.169 23.768C155.785 22.712 155.193 21.912 154.393 21.368C153.625 20.824 152.649 20.552 151.465 20.552C150.313 20.552 149.305 20.824 148.441 21.368C147.609 21.88 146.969 22.68 146.521 23.768C146.073 24.824 145.849 26.168 145.849 27.8C145.849 29.272 146.057 30.552 146.473 31.64C146.889 32.696 147.529 33.512 148.393 34.088C149.257 34.664 150.377 34.952 151.753 34.952C152.969 34.952 153.961 34.744 154.729 34.328C155.529 33.912 156.089 33.352 156.409 32.648H164.377C163.993 34.44 163.225 36.04 162.073 37.448C160.953 38.856 159.513 39.96 157.753 40.76C156.025 41.56 154.025 41.96 151.753 41.96ZM180.934 41.96C178.694 41.96 176.71 41.576 174.982 40.808C173.254 40.04 171.798 39 170.614 37.688C169.43 36.376 168.518 34.904 167.878 33.272C167.27 31.64 166.966 29.96 166.966 28.232V27.272C166.966 25.48 167.27 23.768 167.878 22.136C168.518 20.472 169.414 19 170.566 17.72C171.75 16.44 173.19 15.432 174.886 14.696C176.582 13.928 178.502 13.544 180.646 13.544C183.494 13.544 185.91 14.184 187.894 15.464C189.878 16.744 191.398 18.44 192.454 20.552C193.51 22.632 194.038 24.904 194.038 27.368V30.152H170.614V25.448H188.998L185.974 27.56C185.974 26.056 185.766 24.792 185.35 23.768C184.966 22.712 184.374 21.912 183.574 21.368C182.806 20.824 181.83 20.552 180.646 20.552C179.494 20.552 178.486 20.824 177.622 21.368C176.79 21.88 176.15 22.68 175.702 23.768C175.254 24.824 175.03 26.168 175.03 27.8C175.03 29.272 175.238 30.552 175.654 31.64C176.07 32.696 176.71 33.512 177.574 34.088C178.438 34.664 179.558 34.952 180.934 34.952C182.15 34.952 183.142 34.744 183.91 34.328C184.71 33.912 185.27 33.352 185.59 32.648H193.558C193.174 34.44 192.406 36.04 191.254 37.448C190.134 38.856 188.694 39.96 186.934 40.76C185.206 41.56 183.206 41.96 180.934 41.96ZM197.682 41V14.504H204.594V26.024H204.498C204.498 22.312 205.266 19.4 206.802 17.288C208.37 15.176 210.61 14.12 213.522 14.12H214.578V21.608H212.562C210.61 21.608 209.09 22.136 208.002 23.192C206.946 24.248 206.418 25.768 206.418 27.752V41H197.682Z" fill="white"/>
<path d="M3.552 41H0.552V44H3.552V41ZM3.552 5.96V2.96H0.552V5.96H3.552ZM12.192 5.96H15.192V2.96H12.192V5.96ZM12.192 41V44H15.192V41H12.192ZM11.232 41H8.232V44H11.232V41ZM11.232 33.704V30.704H8.232V33.704H11.232ZM26.016 33.704H29.016V30.704H26.016V33.704ZM26.016 41V44H29.016V41H26.016ZM11.232 26.84H8.232V29.84H11.232V26.84ZM11.232 19.544V16.544H8.232V19.544H11.232ZM25.008 19.544H28.008V16.544H25.008V19.544ZM25.008 26.84V29.84H28.008V26.84H25.008ZM11.232 13.256H8.232V16.256H11.232V13.256ZM11.232 5.96V2.96H8.232V5.96H11.232ZM25.728 5.96H28.728V2.96H25.728V5.96ZM25.728 13.256V16.256H28.728V13.256H25.728ZM6.552 41V5.96H0.552V41H6.552ZM3.552 8.96H12.192V2.96H3.552V8.96ZM9.192 5.96V41H15.192V5.96H9.192ZM12.192 38H3.552V44H12.192V38ZM14.232 41V33.704H8.232V41H14.232ZM11.232 36.704H26.016V30.704H11.232V36.704ZM23.016 33.704V41H29.016V33.704H23.016ZM26.016 38H11.232V44H26.016V38ZM14.232 26.84V19.544H8.232V26.84H14.232ZM11.232 22.544H25.008V16.544H11.232V22.544ZM22.008 19.544V26.84H28.008V19.544H22.008ZM25.008 23.84H11.232V29.84H25.008V23.84ZM14.232 13.256V5.96H8.232V13.256H14.232ZM11.232 8.96H25.728V2.96H11.232V8.96ZM22.728 5.96V13.256H28.728V5.96H22.728ZM25.728 10.256H11.232V16.256H25.728V10.256ZM30.6143 41H27.6143V44H30.6143V41ZM30.6143 14.504V11.504H27.6143V14.504H30.6143ZM37.5263 14.504H40.5263V11.504H37.5263V14.504ZM37.5263 25.88V28.88H40.5263V25.88H37.5263ZM37.1423 25.88H34.1423V28.88H37.1423V25.88ZM38.1982 19.064L40.9905 20.161L40.9938 20.1526L40.997 20.1442L38.1982 19.064ZM41.3183 14.984L39.7076 12.453L39.6944 12.4614L39.6812 12.47L41.3183 14.984ZM53.7503 16.664L51.4185 18.5516L51.4349 18.5719L51.4517 18.5918L53.7503 16.664ZM56.2463 41V44H59.2463V41H56.2463ZM47.5103 41H44.5103V44H47.5103V41ZM46.4062 22.616L44.1541 24.5979L44.1962 24.6457L44.2403 24.6917L46.4062 22.616ZM40.4543 22.616L38.2901 20.5384L38.2883 20.5403L40.4543 22.616ZM39.3503 41V44H42.3503V41H39.3503ZM33.6143 41V14.504H27.6143V41H33.6143ZM30.6143 17.504H37.5263V11.504H30.6143V17.504ZM34.5263 14.504V25.88H40.5263V14.504H34.5263ZM37.5263 22.88H37.1423V28.88H37.5263V22.88ZM40.1423 25.88C40.1423 23.3552 40.4692 21.488 40.9905 20.161L35.406 17.967C34.5193 20.224 34.1423 22.9008 34.1423 25.88H40.1423ZM40.997 20.1442C41.5185 18.7932 42.2023 17.9883 42.9553 17.498L39.6812 12.47C37.6822 13.7717 36.286 15.6868 35.3995 17.9838L40.997 20.1442ZM42.9289 17.515C43.7711 16.979 44.8837 16.64 46.4062 16.64V10.64C43.9608 10.64 41.6814 11.197 39.7076 12.453L42.9289 17.515ZM46.4062 16.64H46.7903V10.64H46.4062V16.64ZM46.7903 16.64C49.055 16.64 50.4508 17.3562 51.4185 18.5516L56.082 14.7764C53.7857 11.9398 50.5415 10.64 46.7903 10.64V16.64ZM51.4517 18.5918C52.4614 19.7957 53.2463 22.0152 53.2463 25.832H59.2463C59.2463 21.3928 58.3671 17.5003 56.0488 14.7362L51.4517 18.5918ZM53.2463 25.832V41H59.2463V25.832H53.2463ZM56.2463 38H47.5103V44H56.2463V38ZM50.5103 41V25.592H44.5103V41H50.5103ZM50.5103 25.592C50.5103 23.722 49.9208 21.9475 48.5722 20.5403L44.2403 24.6917C44.3637 24.8205 44.5103 25.03 44.5103 25.592H50.5103ZM48.6584 20.6341C47.2857 19.0742 45.4259 18.416 43.4783 18.416V24.416C44.0266 24.416 44.1188 24.5578 44.1541 24.5979L48.6584 20.6341ZM43.4783 18.416C41.5259 18.416 39.6973 19.0726 38.2901 20.5384L42.6184 24.6936C42.7472 24.5594 42.9346 24.416 43.4783 24.416V18.416ZM38.2883 20.5403C36.9116 21.9768 36.3503 23.8015 36.3503 25.688H42.3503C42.3503 25.0145 42.5249 24.7912 42.6202 24.6917L38.2883 20.5403ZM36.3503 25.688V41H42.3503V25.688H36.3503ZM39.3503 38H30.6143V44H39.3503V38ZM67.6823 51.464L67.4735 54.4567L67.4782 54.4571L67.6823 51.464ZM63.9383 51.08H60.9383V53.6819L63.514 54.0499L63.9383 51.08ZM63.9383 43.784L64.2789 40.8034L60.9383 40.4216V43.784H63.9383ZM67.6823 44.12L67.9601 41.1329L67.9256 41.1297L67.891 41.1273L67.6823 44.12ZM76.3223 43.688L75.395 40.8349L75.3843 40.8384L75.3736 40.8419L76.3223 43.688ZM79.1543 41.768L81.6077 43.4945L79.1543 41.768ZM80.0663 33.08L77.3477 31.8113L77.0663 32.4145V33.08H80.0663ZM81.4103 30.2L84.409 30.2857L78.6917 28.9313L81.4103 30.2ZM80.1143 36.056L82.808 37.3765L82.813 37.3662L82.818 37.3559L80.1143 36.056ZM76.6583 39.848L75.1228 37.2707L75.1106 37.278L75.0984 37.2854L76.6583 39.848ZM66.4342 40.232L65.2158 42.9734L66.4342 40.232ZM62.7383 37.544L60.4387 39.4707L60.4669 39.5043L60.496 39.5371L62.7383 37.544ZM60.4343 33.368L63.2746 32.4023L60.4343 33.368ZM60.4823 21.752L63.3049 22.7682L63.3081 22.7593L63.3112 22.7505L60.4823 21.752ZM62.9783 17.528L65.1872 19.5579L65.2007 19.5432L65.214 19.5284L62.9783 17.528ZM66.8183 14.744L68.0144 17.4952L68.0283 17.4892L68.0421 17.483L66.8183 14.744ZM77.2822 15.176L75.6923 17.72L75.7115 17.732L75.7309 17.7437L77.2822 15.176ZM80.8823 19.256L83.5846 17.9531L80.8823 19.256ZM82.2743 25.784L83.2653 28.6156L85.3279 27.8937L85.2733 25.709L82.2743 25.784ZM81.3143 26.12H78.3143V30.3484L82.3053 28.9516L81.3143 26.12ZM81.3143 14.504V11.504H78.3143V14.504H81.3143ZM88.2263 14.504H91.2263V11.504H88.2263V14.504ZM86.4023 45.8L83.8334 44.2505V44.2505L86.4023 45.8ZM80.8823 50.216L79.8249 47.4085L79.8127 47.4131L80.8823 50.216ZM77.0423 33.272L75.5853 30.6495L75.5641 30.6613L75.5431 30.6734L77.0423 33.272ZM79.1063 31.208L81.711 32.6964L81.7221 32.6769L81.733 32.6572L79.1063 31.208ZM79.0583 23.576L76.4774 25.1054L76.498 25.1402L76.5196 25.1744L79.0583 23.576ZM76.9943 21.608L78.3752 18.9447V18.9447L76.9943 21.608ZM71.1383 21.752L69.5813 19.1876L69.5605 19.2003L69.5398 19.2133L71.1383 21.752ZM69.0742 24.056L66.4084 22.6801L66.3906 22.7145L66.3738 22.7493L69.0742 24.056ZM69.0742 31.016L66.391 32.3576L66.4086 32.3929L66.4272 32.4278L69.0742 31.016ZM71.1383 33.224L69.6088 35.8049L69.6292 35.817L69.6498 35.8287L71.1383 33.224ZM71.7623 48.608C70.5232 48.608 69.2314 48.5627 67.8863 48.471L67.4782 54.4571C68.9491 54.5573 70.3773 54.608 71.7623 54.608V48.608ZM67.891 48.4713C66.5722 48.3793 65.3975 48.258 64.3625 48.1102L63.514 54.0499C64.719 54.222 66.0403 54.3567 67.4735 54.4567L67.891 48.4713ZM66.9383 51.08V43.784H60.9383V51.08H66.9383ZM63.5976 46.7646C64.7698 46.8986 66.0627 47.0143 67.4735 47.1127L67.891 41.1273C66.5498 41.0337 65.3467 40.9254 64.2789 40.8034L63.5976 46.7646ZM67.4044 47.1071C68.8552 47.2421 70.2134 47.312 71.4743 47.312V41.312C70.4311 41.312 69.2613 41.2539 67.9601 41.1329L67.4044 47.1071ZM71.4743 47.312C73.6341 47.312 75.6035 47.0899 77.2709 46.534L75.3736 40.8419C74.545 41.1181 73.2825 41.312 71.4743 41.312V47.312ZM77.2495 46.5411C78.9762 45.9799 80.5347 45.0192 81.6077 43.4945L76.7008 40.0415C76.5578 40.2448 76.2283 40.5641 75.395 40.8349L77.2495 46.5411ZM81.6077 43.4945C82.6574 42.0028 83.0663 40.2496 83.0663 38.456H77.0663C77.0663 39.3504 76.8671 39.8052 76.7008 40.0415L81.6077 43.4945ZM83.0663 38.456V33.08H77.0663V38.456H83.0663ZM82.7848 34.3487L84.1288 31.4687L78.6917 28.9313L77.3477 31.8113L82.7848 34.3487ZM78.4115 30.1143C78.357 32.0214 77.9934 33.5438 77.4105 34.7561L82.818 37.3559C83.8351 35.2402 84.3355 32.8586 84.409 30.2857L78.4115 30.1143ZM77.4205 34.7355C76.8662 35.8662 76.1072 36.6842 75.1228 37.2707L78.1937 42.4253C80.2173 41.2198 81.7623 39.5098 82.808 37.3765L77.4205 34.7355ZM75.0984 37.2854C74.1921 37.8371 72.968 38.192 71.2822 38.192V44.192C73.8205 44.192 76.1804 43.6509 78.2181 42.4106L75.0984 37.2854ZM71.2822 38.192C69.8525 38.192 68.6598 37.9382 67.6527 37.4906L65.2158 42.9734C67.0887 43.8058 69.128 44.192 71.2822 44.192V38.192ZM67.6527 37.4906C66.5944 37.0202 65.714 36.3761 64.9805 35.5509L60.496 39.5371C61.8105 41.0159 63.3941 42.1638 65.2158 42.9734L67.6527 37.4906ZM65.0378 35.6173C64.3053 34.7431 63.7105 33.6844 63.2746 32.4023L57.5939 34.3337C58.246 36.2516 59.1872 37.9769 60.4387 39.4707L65.0378 35.6173ZM63.2746 32.4023C62.8479 31.1474 62.6183 29.7337 62.6183 28.136H56.6183C56.6183 30.3143 56.9326 32.3886 57.5939 34.3337L63.2746 32.4023ZM62.6183 28.136V26.984H56.6183V28.136H62.6183ZM62.6183 26.984C62.6183 25.4044 62.8585 24.0083 63.3049 22.7682L57.6596 20.7358C56.954 22.6957 56.6183 24.7876 56.6183 26.984H62.6183ZM63.3112 22.7505C63.7628 21.4711 64.3938 20.4213 65.1872 19.5579L60.7693 15.4981C59.3867 17.0027 58.3537 18.7689 57.6533 20.7535L63.3112 22.7505ZM65.214 19.5284C66.0185 18.6292 66.9457 17.9599 68.0144 17.4952L65.6221 11.9928C63.7468 12.8081 62.114 13.9948 60.7425 15.5276L65.214 19.5284ZM68.0421 17.483C69.1215 17.0007 70.3625 16.736 71.8102 16.736V10.736C69.61 10.736 67.523 11.1433 65.5944 12.005L68.0421 17.483ZM71.8102 16.736C73.4549 16.736 74.7076 17.1046 75.6923 17.72L78.8722 12.632C76.7849 11.3274 74.3896 10.736 71.8102 10.736V16.736ZM75.7309 17.7437C76.7154 18.3385 77.5403 19.2322 78.1799 20.5589L83.5846 17.9531C82.4962 15.6958 80.9211 13.8695 78.8336 12.6083L75.7309 17.7437ZM78.1799 20.5589C78.814 21.8739 79.2189 23.6072 79.2752 25.859L85.2733 25.709C85.2016 22.8408 84.6785 20.2221 83.5846 17.9531L78.1799 20.5589ZM81.2832 22.9524L80.3232 23.2884L82.3053 28.9516L83.2653 28.6156L81.2832 22.9524ZM84.3143 26.12V14.504H78.3143V26.12H84.3143ZM81.3143 17.504H88.2263V11.504H81.3143V17.504ZM85.2263 14.504V37.88H91.2263V14.504H85.2263ZM85.2263 37.88C85.2263 40.7999 84.6786 42.8492 83.8334 44.2505L88.9711 47.3495C90.5579 44.7188 91.2263 41.4881 91.2263 37.88H85.2263ZM83.8334 44.2505C83.0068 45.621 81.7369 46.6884 79.8249 47.4085L81.9396 53.0235C84.9556 51.8876 87.3658 50.011 88.9711 47.3495L83.8334 44.2505ZM79.8127 47.4131C77.8295 48.1699 75.1804 48.608 71.7623 48.608V54.608C75.6401 54.608 79.071 54.1181 81.9518 53.0189L79.8127 47.4131ZM74.2103 36.992C75.7388 36.992 77.2092 36.6392 78.5414 35.8706L75.5431 30.6734C75.2113 30.8648 74.7937 30.992 74.2103 30.992V36.992ZM78.4992 35.8945C79.8638 35.1363 80.9397 34.0462 81.711 32.6964L76.5015 29.7196C76.2488 30.1618 75.9487 30.4476 75.5853 30.6495L78.4992 35.8945ZM81.733 32.6572C82.5359 31.202 82.8743 29.5781 82.8743 27.896H76.8743C76.8743 28.7739 76.7006 29.358 76.4795 29.7588L81.733 32.6572ZM82.8743 27.896V26.744H76.8743V27.896H82.8743ZM82.8743 26.744C82.8743 25.0565 82.5032 23.4168 81.5969 21.9776L76.5196 25.1744C76.7014 25.4632 76.8743 25.9355 76.8743 26.744H82.8743ZM81.6391 22.0466C80.8507 20.7161 79.7538 19.6596 78.3752 18.9447L75.6133 24.2713C75.9627 24.4524 76.2418 24.7079 76.4774 25.1054L81.6391 22.0466ZM78.3752 18.9447C77.076 18.2711 75.6733 17.936 74.2103 17.936V23.936C74.7312 23.936 75.1845 24.0489 75.6133 24.2713L78.3752 18.9447ZM74.2103 17.936C72.5653 17.936 70.9924 18.3309 69.5813 19.1876L72.6952 24.3164C73.0761 24.0851 73.5512 23.936 74.2103 23.936V17.936ZM69.5398 19.2133C68.1809 20.0689 67.1424 21.258 66.4084 22.6801L71.7401 25.4319C72.0301 24.87 72.3676 24.5231 72.7367 24.2907L69.5398 19.2133ZM66.3738 22.7493C65.6581 24.2283 65.3543 25.8611 65.3543 27.56H71.3543C71.3543 26.5709 71.5304 25.8677 71.7747 25.3627L66.3738 22.7493ZM65.3543 27.56C65.3543 29.255 65.6568 30.8894 66.391 32.3576L71.7575 29.6744C71.5317 29.2226 71.3543 28.553 71.3543 27.56H65.3543ZM66.4272 32.4278C67.1754 33.8306 68.2331 34.9896 69.6088 35.8049L72.6677 30.6431C72.3154 30.4344 71.9971 30.1214 71.7213 29.6042L66.4272 32.4278ZM69.6498 35.8287C71.0501 36.6289 72.5982 36.992 74.2103 36.992V30.992C73.5183 30.992 73.0184 30.8431 72.6267 30.6193L69.6498 35.8287ZM94.5829 41H91.5829V44H94.5829V41ZM94.5829 14.504V11.504H91.5829V14.504H94.5829ZM103.319 14.504H106.319V11.504H103.319V14.504ZM103.319 41V44H106.319V41H103.319ZM91.2229 20.84H88.2229V23.84H91.2229V20.84ZM91.2229 14.504V11.504H88.2229V14.504H91.2229ZM103.319 14.504H106.319V11.504H103.319V14.504ZM103.319 20.84V23.84H106.319V20.84H103.319ZM94.6309 11.192L92.3839 13.1797L92.4244 13.2255L92.4667 13.2696L94.6309 11.192ZM94.6309 4.904L92.4265 2.86916L92.4231 2.87283L94.6309 4.904ZM101.639 4.904L99.3919 6.89172L99.4113 6.91364L99.4311 6.93517L101.639 4.904ZM101.639 11.192L103.847 13.2232L103.866 13.2016L103.886 13.1797L101.639 11.192ZM97.5829 41V14.504H91.5829V41H97.5829ZM94.5829 17.504H103.319V11.504H94.5829V17.504ZM100.319 14.504V41H106.319V14.504H100.319ZM103.319 38H94.5829V44H103.319V38ZM94.2229 20.84V14.504H88.2229V20.84H94.2229ZM91.2229 17.504H103.319V11.504H91.2229V17.504ZM100.319 14.504V20.84H106.319V14.504H100.319ZM103.319 17.84H91.2229V23.84H103.319V17.84ZM98.1829 9.392C97.6225 9.392 97.2649 9.32071 97.0551 9.24981C96.8614 9.18437 96.8046 9.12438 96.795 9.1144L92.4667 13.2696C94.0114 14.8786 96.1312 15.392 98.1829 15.392V9.392ZM96.8779 9.20427C96.7003 9.00356 96.5269 8.69041 96.5269 8.024H90.5269C90.5269 9.91759 91.0894 11.7164 92.3839 13.1797L96.8779 9.20427ZM96.5269 8.024C96.5269 7.35446 96.7007 7.08511 96.8387 6.93517L92.4231 2.87283C91.089 4.32289 90.5269 6.13354 90.5269 8.024H96.5269ZM96.8353 6.93884C96.8435 6.92999 97.0716 6.656 98.1349 6.656V0.655997C96.0621 0.655997 93.9543 1.21401 92.4265 2.86916L96.8353 6.93884ZM98.1349 6.656C98.6864 6.656 99.0219 6.72912 99.2043 6.7941C99.2916 6.82519 99.3395 6.85274 99.3613 6.86705C99.3818 6.88046 99.389 6.88842 99.3919 6.89172L103.886 2.91628C102.366 1.1983 100.207 0.655997 98.1349 0.655997V6.656ZM99.4311 6.93517C99.569 7.08511 99.7429 7.35446 99.7429 8.024H105.743C105.743 6.13354 105.181 4.32289 103.847 2.87283L99.4311 6.93517ZM99.7429 8.024C99.7429 8.69041 99.5694 9.00356 99.3919 9.20427L103.886 13.1797C105.18 11.7164 105.743 9.91759 105.743 8.024H99.7429ZM99.4311 9.16083C99.429 9.16306 99.4216 9.17118 99.3996 9.18513C99.3764 9.19992 99.327 9.22737 99.2388 9.25798C99.055 9.3218 98.7228 9.392 98.1829 9.392V15.392C100.212 15.392 102.329 14.8723 103.847 13.2232L99.4311 9.16083ZM108.781 41H105.781V44H108.781V41ZM108.781 14.504V11.504H105.781V14.504H108.781ZM115.693 14.504H118.693V11.504H115.693V14.504ZM115.693 25.88V28.88H118.693V25.88H115.693ZM115.309 25.88H112.309V28.88H115.309V25.88ZM116.365 19.064L119.157 20.161L119.161 20.1526L119.164 20.1442L116.365 19.064ZM119.485 14.984L117.875 12.453L117.861 12.4614L117.848 12.47L119.485 14.984ZM131.917 16.664L129.585 18.5516L129.602 18.5719L129.619 18.5918L131.917 16.664ZM134.413 41V44H137.413V41H134.413ZM125.677 41H122.677V44H125.677V41ZM124.573 22.616L122.321 24.5979L122.363 24.6457L122.407 24.6917L124.573 22.616ZM118.621 22.616L116.457 20.5384L116.455 20.5403L118.621 22.616ZM117.517 41V44H120.517V41H117.517ZM111.781 41V14.504H105.781V41H111.781ZM108.781 17.504H115.693V11.504H108.781V17.504ZM112.693 14.504V25.88H118.693V14.504H112.693ZM115.693 22.88H115.309V28.88H115.693V22.88ZM118.309 25.88C118.309 23.3552 118.636 21.488 119.157 20.161L113.573 17.967C112.686 20.224 112.309 22.9008 112.309 25.88H118.309ZM119.164 20.1442C119.685 18.7932 120.369 17.9883 121.122 17.498L117.848 12.47C115.849 13.7717 114.453 15.6868 113.566 17.9838L119.164 20.1442ZM121.096 17.515C121.938 16.979 123.051 16.64 124.573 16.64V10.64C122.128 10.64 119.848 11.197 117.875 12.453L121.096 17.515ZM124.573 16.64H124.957V10.64H124.573V16.64ZM124.957 16.64C127.222 16.64 128.618 17.3562 129.585 18.5516L134.249 14.7764C131.953 11.9398 128.708 10.64 124.957 10.64V16.64ZM129.619 18.5918C130.628 19.7957 131.413 22.0152 131.413 25.832H137.413C137.413 21.3928 136.534 17.5003 134.216 14.7362L129.619 18.5918ZM131.413 25.832V41H137.413V25.832H131.413ZM134.413 38H125.677V44H134.413V38ZM128.677 41V25.592H122.677V41H128.677ZM128.677 25.592C128.677 23.722 128.088 21.9475 126.739 20.5403L122.407 24.6917C122.531 24.8205 122.677 25.03 122.677 25.592H128.677ZM126.825 20.6341C125.453 19.0742 123.593 18.416 121.645 18.416V24.416C122.193 24.416 122.286 24.5578 122.321 24.5979L126.825 20.6341ZM121.645 18.416C119.693 18.416 117.864 19.0726 116.457 20.5384L120.785 24.6936C120.914 24.5594 121.102 24.416 121.645 24.416V18.416ZM116.455 20.5403C115.079 21.9768 114.517 23.8015 114.517 25.688H120.517C120.517 25.0145 120.692 24.7912 120.787 24.6917L116.455 20.5403ZM114.517 25.688V41H120.517V25.688H114.517ZM117.517 38H108.781V44H117.517V38ZM145.801 40.808L144.583 43.5494L145.801 40.808ZM141.433 37.688L143.66 35.6781V35.6781L141.433 37.688ZM138.697 33.272L135.886 34.3193L135.895 34.3434L135.904 34.3673L138.697 33.272ZM138.697 22.136L135.897 21.0591L135.891 21.0738L135.886 21.0887L138.697 22.136ZM141.385 17.72L139.183 15.6829L139.169 15.6979L139.155 15.7131L141.385 17.72ZM145.705 14.696L146.899 17.448L146.921 17.4386L146.943 17.4289L145.705 14.696ZM158.713 15.464L157.087 17.9849L158.713 15.464ZM163.273 20.552L160.59 21.8936L160.594 21.9019L160.598 21.9101L163.273 20.552ZM164.857 30.152V33.152H167.857V30.152H164.857ZM141.433 30.152H138.433V33.152H141.433V30.152ZM141.433 25.448V22.448H138.433V25.448H141.433ZM159.817 25.448L161.535 27.9075L169.352 22.448H159.817V25.448ZM156.793 27.56H153.793V33.3145L158.511 30.0195L156.793 27.56ZM156.169 23.768L153.35 24.7932L153.369 24.8455L153.39 24.8971L156.169 23.768ZM154.393 21.368L152.659 23.8161L152.682 23.8327L152.706 23.8488L154.393 21.368ZM148.441 21.368L150.013 23.923L150.027 23.9149L150.04 23.9067L148.441 21.368ZM146.521 23.768L149.283 24.9396L149.289 24.925L149.295 24.9102L146.521 23.768ZM146.473 31.64L143.671 32.7114L143.676 32.7255L143.682 32.7396L146.473 31.64ZM148.393 34.088L150.057 31.5919V31.5918L148.393 34.088ZM154.729 34.328L153.345 31.6663L153.323 31.678L153.3 31.6901L154.729 34.328ZM156.409 32.648V29.648H154.477L153.678 31.4066L156.409 32.648ZM164.377 32.648L167.311 33.2766L168.088 29.648H164.377V32.648ZM162.073 37.448L159.751 35.5483L159.738 35.5643L159.725 35.5804L162.073 37.448ZM157.753 40.76L156.512 38.0289L156.502 38.0332L156.493 38.0376L157.753 40.76ZM151.753 38.96C149.856 38.96 148.3 38.6356 147.02 38.0666L144.583 43.5494C146.758 44.5164 149.17 44.96 151.753 44.96V38.96ZM147.02 38.0666C145.648 37.457 144.544 36.6569 143.66 35.6781L139.206 39.6979C140.691 41.3431 142.498 42.623 144.583 43.5494L147.02 38.0666ZM143.66 35.6781C142.716 34.6322 141.997 33.4695 141.49 32.1767L135.904 34.3673C136.677 36.3385 137.782 38.1198 139.206 39.6979L143.66 35.6781ZM141.508 32.2247C141.024 30.9251 140.785 29.5996 140.785 28.232H134.785C134.785 30.3204 135.154 32.3549 135.886 34.3193L141.508 32.2247ZM140.785 28.232V27.272H134.785V28.232H140.785ZM140.785 27.272C140.785 25.827 141.029 24.4705 141.508 23.1833L135.886 21.0887C135.149 23.0655 134.785 25.133 134.785 27.272H140.785ZM141.497 23.2129C142.01 21.8789 142.717 20.7247 143.615 19.7269L139.155 15.7131C137.749 17.2753 136.664 19.0651 135.897 21.0591L141.497 23.2129ZM143.587 19.7571C144.472 18.801 145.562 18.0284 146.899 17.448L144.511 11.944C142.456 12.8356 140.666 14.079 139.183 15.6829L143.587 19.7571ZM146.943 17.4289C148.195 16.8617 149.684 16.544 151.465 16.544V10.544C148.959 10.544 146.607 10.9943 144.468 11.9631L146.943 17.4289ZM151.465 16.544C153.856 16.544 155.679 17.077 157.087 17.9849L160.34 12.9431C157.779 11.291 154.77 10.544 151.465 10.544V16.544ZM157.087 17.9849C158.619 18.9735 159.774 20.2622 160.59 21.8936L165.956 19.2104C164.66 16.6178 162.775 14.5145 160.34 12.9431L157.087 17.9849ZM160.598 21.9101C161.428 23.5456 161.857 25.3486 161.857 27.368H167.857C167.857 24.4594 167.23 21.7184 165.948 19.1939L160.598 21.9101ZM161.857 27.368V30.152H167.857V27.368H161.857ZM164.857 27.152H141.433V33.152H164.857V27.152ZM144.433 30.152V25.448H138.433V30.152H144.433ZM141.433 28.448H159.817V22.448H141.433V28.448ZM158.099 22.9885L155.075 25.1005L158.511 30.0195L161.535 27.9075L158.099 22.9885ZM159.793 27.56C159.793 25.7998 159.552 24.1256 158.949 22.6389L153.39 24.8971C153.618 25.4584 153.793 26.3122 153.793 27.56H159.793ZM158.989 22.7428C158.425 21.1936 157.482 19.8404 156.08 18.8872L152.706 23.8488C152.905 23.9836 153.145 24.2304 153.35 24.7932L158.989 22.7428ZM156.127 18.9199C154.735 17.9337 153.109 17.552 151.465 17.552V23.552C152.189 23.552 152.515 23.7143 152.659 23.8161L156.127 18.9199ZM151.465 17.552C149.822 17.552 148.245 17.9465 146.843 18.8293L150.04 23.9067C150.365 23.7015 150.804 23.552 151.465 23.552V17.552ZM146.869 18.813C145.394 19.7205 144.386 21.0743 143.747 22.6257L149.295 24.9102C149.552 24.2857 149.824 24.0395 150.013 23.923L146.869 18.813ZM143.759 22.5963C143.103 24.1446 142.849 25.9228 142.849 27.8H148.849C148.849 26.4132 149.044 25.5034 149.283 24.9396L143.759 22.5963ZM142.849 27.8C142.849 29.5456 143.095 31.2044 143.671 32.7114L149.275 30.5686C149.019 29.8996 148.849 28.9984 148.849 27.8H142.849ZM143.682 32.7396C144.3 34.3097 145.308 35.6369 146.729 36.5842L150.057 31.5918C149.75 31.3871 149.478 31.0823 149.264 30.5404L143.682 32.7396ZM146.729 36.5841C148.223 37.5799 149.974 37.952 151.753 37.952V31.952C150.78 31.952 150.292 31.7481 150.057 31.5919L146.729 36.5841ZM151.753 37.952C153.283 37.952 154.813 37.6944 156.158 36.9659L153.3 31.6901C153.109 31.7936 152.655 31.952 151.753 31.952V37.952ZM156.113 36.9897C157.405 36.3178 158.498 35.3021 159.14 33.8894L153.678 31.4066C153.671 31.4232 153.66 31.4428 153.628 31.4747C153.592 31.5103 153.51 31.5805 153.345 31.6663L156.113 36.9897ZM156.409 35.648H164.377V29.648H156.409V35.648ZM161.444 32.0194C161.159 33.3487 160.599 34.5122 159.751 35.5483L164.395 39.3477C165.851 37.5678 166.827 35.5313 167.311 33.2766L161.444 32.0194ZM159.725 35.5804C158.922 36.5898 157.873 37.4102 156.512 38.0289L158.995 43.4911C161.153 42.5098 162.984 41.1222 164.421 39.3156L159.725 35.5804ZM156.493 38.0376C155.229 38.6228 153.673 38.96 151.753 38.96V44.96C154.377 44.96 156.822 44.4972 159.013 43.4824L156.493 38.0376ZM174.982 40.808L173.763 43.5494L174.982 40.808ZM170.614 37.688L172.841 35.6781V35.6781L170.614 37.688ZM167.878 33.272L165.067 34.3193L165.075 34.3434L165.085 34.3673L167.878 33.272ZM167.878 22.136L165.078 21.0591L165.072 21.0738L165.067 21.0887L167.878 22.136ZM170.566 17.72L168.363 15.6829L168.35 15.6979L168.336 15.7131L170.566 17.72ZM174.886 14.696L176.08 17.448L176.102 17.4386L176.123 17.4289L174.886 14.696ZM187.894 15.464L186.267 17.9849L187.894 15.464ZM192.454 20.552L189.77 21.8936L189.775 21.9019L189.779 21.9101L192.454 20.552ZM194.038 30.152V33.152H197.038V30.152H194.038ZM170.614 30.152H167.614V33.152H170.614V30.152ZM170.614 25.448V22.448H167.614V25.448H170.614ZM188.998 25.448L190.716 27.9075L198.533 22.448H188.998V25.448ZM185.974 27.56H182.974V33.3145L187.692 30.0195L185.974 27.56ZM185.35 23.768L182.53 24.7932L182.549 24.8455L182.57 24.8971L185.35 23.768ZM183.574 21.368L181.84 23.8161L181.863 23.8327L181.887 23.8488L183.574 21.368ZM177.622 21.368L179.194 23.923L179.207 23.9149L179.22 23.9067L177.622 21.368ZM175.702 23.768L178.464 24.9396L178.47 24.925L178.476 24.9102L175.702 23.768ZM175.654 31.64L172.852 32.7114L172.857 32.7255L172.863 32.7396L175.654 31.64ZM177.574 34.088L179.238 31.5919V31.5918L177.574 34.088ZM183.91 34.328L182.526 31.6663L182.503 31.678L182.481 31.6901L183.91 34.328ZM185.59 32.648V29.648H183.658L182.859 31.4066L185.59 32.648ZM193.558 32.648L196.491 33.2766L197.269 29.648H193.558V32.648ZM191.254 37.448L188.932 35.5483L188.919 35.5643L188.906 35.5804L191.254 37.448ZM186.934 40.76L185.692 38.0289L185.683 38.0332L185.673 38.0376L186.934 40.76ZM180.934 38.96C179.037 38.96 177.48 38.6356 176.2 38.0666L173.763 43.5494C175.939 44.5164 178.35 44.96 180.934 44.96V38.96ZM176.2 38.0666C174.829 37.457 173.724 36.6569 172.841 35.6781L168.387 39.6979C169.871 41.3431 171.679 42.623 173.763 43.5494L176.2 38.0666ZM172.841 35.6781C171.897 34.6322 171.178 33.4695 170.671 32.1767L165.085 34.3673C165.858 36.3385 166.962 38.1198 168.387 39.6979L172.841 35.6781ZM170.689 32.2247C170.205 30.9251 169.966 29.5996 169.966 28.232H163.966C163.966 30.3204 164.335 32.3549 165.067 34.3193L170.689 32.2247ZM169.966 28.232V27.272H163.966V28.232H169.966ZM169.966 27.272C169.966 25.827 170.209 24.4705 170.689 23.1833L165.067 21.0887C164.33 23.0655 163.966 25.133 163.966 27.272H169.966ZM170.678 23.2129C171.191 21.8789 171.898 20.7247 172.796 19.7269L168.336 15.7131C166.93 17.2753 165.845 19.0651 165.078 21.0591L170.678 23.2129ZM172.768 19.7571C173.652 18.801 174.743 18.0284 176.08 17.448L173.691 11.944C171.637 12.8356 169.847 14.079 168.363 15.6829L172.768 19.7571ZM176.123 17.4289C177.376 16.8617 178.864 16.544 180.646 16.544V10.544C178.139 10.544 175.788 10.9943 173.648 11.9631L176.123 17.4289ZM180.646 16.544C183.037 16.544 184.86 17.077 186.267 17.9849L189.52 12.9431C186.959 11.291 183.951 10.544 180.646 10.544V16.544ZM186.267 17.9849C187.8 18.9735 188.955 20.2622 189.77 21.8936L195.137 19.2104C193.841 16.6178 191.956 14.5145 189.52 12.9431L186.267 17.9849ZM189.779 21.9101C190.609 23.5456 191.038 25.3486 191.038 27.368H197.038C197.038 24.4594 196.41 21.7184 195.129 19.1939L189.779 21.9101ZM191.038 27.368V30.152H197.038V27.368H191.038ZM194.038 27.152H170.614V33.152H194.038V27.152ZM173.614 30.152V25.448H167.614V30.152H173.614ZM170.614 28.448H188.998V22.448H170.614V28.448ZM187.28 22.9885L184.256 25.1005L187.692 30.0195L190.716 27.9075L187.28 22.9885ZM188.974 27.56C188.974 25.7998 188.733 24.1256 188.129 22.6389L182.57 24.8971C182.798 25.4584 182.974 26.3122 182.974 27.56H188.974ZM188.169 22.7428C187.606 21.1936 186.662 19.8404 185.261 18.8872L181.887 23.8488C182.085 23.9836 182.326 24.2304 182.53 24.7932L188.169 22.7428ZM185.308 18.9199C183.915 17.9337 182.29 17.552 180.646 17.552V23.552C181.37 23.552 181.696 23.7143 181.84 23.8161L185.308 18.9199ZM180.646 17.552C179.003 17.552 177.425 17.9465 176.023 18.8293L179.22 23.9067C179.546 23.7015 179.985 23.552 180.646 23.552V17.552ZM176.049 18.813C174.575 19.7205 173.567 21.0743 172.928 22.6257L178.476 24.9102C178.733 24.2857 179.005 24.0395 179.194 23.923L176.049 18.813ZM172.94 22.5963C172.283 24.1446 172.03 25.9228 172.03 27.8H178.03C178.03 26.4132 178.224 25.5034 178.464 24.9396L172.94 22.5963ZM172.03 27.8C172.03 29.5456 172.275 31.2044 172.852 32.7114L178.456 30.5686C178.2 29.8996 178.03 28.9984 178.03 27.8H172.03ZM172.863 32.7396C173.481 34.3097 174.489 35.6369 175.91 36.5842L179.238 31.5918C178.931 31.3871 178.658 31.0823 178.445 30.5404L172.863 32.7396ZM175.91 36.5841C177.403 37.5799 179.155 37.952 180.934 37.952V31.952C179.961 31.952 179.472 31.7481 179.238 31.5919L175.91 36.5841ZM180.934 37.952C182.463 37.952 183.994 37.6944 185.339 36.9659L182.481 31.6901C182.29 31.7936 181.836 31.952 180.934 31.952V37.952ZM185.294 36.9897C186.586 36.3178 187.679 35.3021 188.321 33.8894L182.859 31.4066C182.851 31.4232 182.84 31.4428 182.808 31.4747C182.773 31.5103 182.691 31.5805 182.526 31.6663L185.294 36.9897ZM185.59 35.648H193.558V29.648H185.59V35.648ZM190.624 32.0194C190.339 33.3487 189.78 34.5122 188.932 35.5483L193.576 39.3477C195.032 37.5678 196.008 35.5313 196.491 33.2766L190.624 32.0194ZM188.906 35.5804C188.103 36.5898 187.053 37.4102 185.692 38.0289L188.175 43.4911C190.334 42.5098 192.164 41.1222 193.602 39.3156L188.906 35.5804ZM185.673 38.0376C184.409 38.6228 182.853 38.96 180.934 38.96V44.96C183.558 44.96 186.002 44.4972 188.194 43.4824L185.673 38.0376ZM197.682 41H194.682V44H197.682V41ZM197.682 14.504V11.504H194.682V14.504H197.682ZM204.594 14.504H207.594V11.504H204.594V14.504ZM204.594 26.024V29.024H207.594V26.024H204.594ZM204.498 26.024H201.498V29.024H204.498V26.024ZM206.802 17.288L204.394 15.4997L204.385 15.5115L204.376 15.5235L206.802 17.288ZM214.578 14.12H217.578V11.12H214.578V14.12ZM214.578 21.608V24.608H217.578V21.608H214.578ZM208.002 23.192L205.913 21.0393L205.897 21.0548L205.881 21.0707L208.002 23.192ZM206.418 41V44H209.418V41H206.418ZM200.682 41V14.504H194.682V41H200.682ZM197.682 17.504H204.594V11.504H197.682V17.504ZM201.594 14.504V26.024H207.594V14.504H201.594ZM204.594 23.024H204.498V29.024H204.594V23.024ZM207.498 26.024C207.498 22.6877 208.193 20.4763 209.229 19.0525L204.376 15.5235C202.34 18.3237 201.498 21.9363 201.498 26.024H207.498ZM209.211 19.0763C210.147 17.8161 211.442 17.12 213.522 17.12V11.12C209.778 11.12 206.594 12.5359 204.394 15.4997L209.211 19.0763ZM213.522 17.12H214.578V11.12H213.522V17.12ZM211.578 14.12V21.608H217.578V14.12H211.578ZM214.578 18.608H212.562V24.608H214.578V18.608ZM212.562 18.608C210.064 18.608 207.708 19.2965 205.913 21.0393L210.092 25.3447C210.472 24.9755 211.157 24.608 212.562 24.608V18.608ZM205.881 21.0707C204.096 22.8553 203.418 25.2427 203.418 27.752H209.418C209.418 26.2933 209.796 25.6407 210.124 25.3133L205.881 21.0707ZM203.418 27.752V41H209.418V27.752H203.418ZM206.418 38H197.682V44H206.418V38Z" fill="black" mask="url(#path-1-outside-1_28_628)"/>
</svg>
